<svg width="21" height="18" viewBox="0 0 21 18" fill="none" xmlns="http://www.w3.org/2000/svg">
<path d="M1.14648 9.35351L8.64648 16.8535C8.84181 17.0488 9.15822 17.0488 9.3535 16.8535C9.54883 16.6582 9.54883 16.3418 9.3535 16.1465L2.707 9.5L19.5 9.5C19.7764 9.5 20 9.27636 20 8.99998C20 8.72361 19.7764 8.49997 19.5 8.49997L2.707 8.49997L9.3535 1.85352C9.54883 1.65819 9.54883 1.34179 9.3535 1.14651C9.25586 1.04887 9.12789 1.00002 8.99997 1.00002C8.87205 1.00002 8.74412 1.04887 8.64644 1.14651L1.14644 8.6465C0.951155 8.84178 0.951157 9.15818 1.14648 9.35351Z" fill="#04051E" stroke="#04051E" stroke-width="0.5"/>
</svg>
