<svg width="168" height="24" viewBox="0 0 168 24" fill="none" xmlns="http://www.w3.org/2000/svg">
<path d="M167.998 19.7056H165.576V9.96721C164.564 11.7291 161.816 16.5847 160.722 18.4903C160.487 18.8977 160.124 19.7068 159.644 19.705H157.661C157.164 19.705 156.842 18.9913 156.542 18.482C154.927 15.6414 153.31 12.8021 151.695 9.96214L151.681 19.705H149.272C149.278 15.8983 149.259 12.0657 149.272 8.26032C149.273 7.67448 150.135 7.60236 150.543 7.60236L152.398 7.5992C153.274 7.6011 153.33 7.92818 153.518 8.26981C154.207 9.51992 157.897 15.9679 158.632 17.2534C160.254 14.4192 161.883 11.583 163.506 8.74746C163.956 7.87124 164.158 7.60236 164.758 7.59983H166.78C167.326 7.5973 167.955 7.79279 168 8.32738C167.996 11.5716 168.003 16.4633 167.998 19.7068V19.7056ZM146.035 19.7056L136.007 19.7043C135.359 19.7043 134.801 19.1286 134.801 18.4795L134.814 8.8044C134.815 8.64422 134.847 8.48579 134.909 8.33825C134.97 8.19072 135.059 8.057 135.172 7.94483C135.284 7.83266 135.418 7.74425 135.564 7.68471C135.71 7.62517 135.867 7.59568 136.025 7.59793H146.054C146.727 7.59983 147.242 8.15467 147.242 8.82338L147.244 18.4979C147.242 19.1463 146.684 19.7049 146.034 19.7043L146.035 19.7056ZM144.831 10.0305L137.217 10.0317V17.2882L144.831 17.2863V10.0305ZM132.774 19.7056H120.501C119.76 19.7043 119.119 19.0413 119.119 18.2948L119.137 6.52623C119.138 6.34265 119.174 6.16102 119.244 5.99181C119.314 5.8226 119.417 5.66917 119.545 5.54037C119.674 5.41156 119.827 5.30993 119.994 5.24134C120.162 5.17275 120.341 5.13855 120.522 5.14072L132.777 5.1597V7.59857L121.604 7.59983L121.602 17.287L132.776 17.2838L132.773 19.705L132.774 19.7056ZM113.72 17.2876H105.35L103.953 19.7056L101.168 19.7005L107.467 8.79364C107.857 8.04901 108.552 7.65108 109.551 7.6011C110.588 7.69726 111.293 8.11734 111.666 8.86134L117.89 19.705L115.107 19.7037L113.72 17.2876ZM109.547 10.0197L106.756 14.8519L112.322 14.8551L109.547 10.0197ZM90.3045 10.0324V17.2863H97.6036L97.6079 14.857L92.7332 14.8551L92.7344 12.4371H100.023L100.012 18.4979C100.012 19.1476 99.4539 19.7062 98.8064 19.7062L97.5451 19.7043L89.093 19.7031C88.4455 19.7031 87.8871 19.1292 87.8895 18.4795L87.892 8.80629C87.892 8.13569 88.4387 7.59793 89.1123 7.59793H100.029L100.025 10.0324L90.3033 10.0311L90.3045 10.0324ZM76.1372 10.0324L76.1341 12.4364H85.8543L85.85 14.8557H76.1316L76.1266 17.287L85.845 17.2889L85.8438 19.7056H74.9176C74.2701 19.7056 73.711 19.128 73.711 18.4795L73.7129 8.80629C73.7129 8.13758 74.2608 7.59793 74.9331 7.59793L85.8606 7.5992L85.8581 10.0336L76.1372 10.0324ZM71.6721 19.7056H69.1226V7.24618C67.9373 9.2985 64.3711 16.0603 63.0899 18.2809C62.8122 18.7553 62.3864 19.7043 61.8223 19.7012L59.5549 19.7056C58.974 19.7056 58.5961 18.8667 58.2463 18.2707C56.3499 14.962 54.1622 10.548 52.2695 7.23985L52.2509 19.705H49.7201C49.7263 15.2726 49.7045 10.3594 49.7201 5.92584C49.7213 5.32229 50.6216 5.1578 51.0761 5.1578H52.8417C53.8664 5.1578 54.1167 5.53739 54.3383 5.93596C55.1477 7.39106 59.8382 15.706 60.6979 17.206C62.6049 13.9017 64.9315 9.65025 66.8365 6.34719C67.3657 5.32672 67.5911 5.1616 68.2971 5.1578L70.2657 5.1597C70.9051 5.15654 71.6229 5.3786 71.6727 6.00113C71.6677 9.78184 71.6758 15.9255 71.6715 19.7043L71.6721 19.7056Z" fill="#472F91"/>
<path d="M32.3915 0.000856837L28.29 2.32117L33.438 5.30296V18.7125L28.2909 21.6643L32.3932 24L42.8572 18.0167V5.96958L32.3915 0V0.000856837Z" fill="#BCBDC0"/>
<path d="M21.2521 0.000856837L17.1481 2.28861L22.2824 5.23784V18.7125L17.1481 21.6643L21.2521 24L31.7144 18.0167V5.96958L21.2512 0L21.2521 0.000856837Z" fill="#71BF44"/>
<path d="M0 5.98315L10.2651 0.00585938V0.00671621L20.5628 5.98315V18.0217L10.2651 23.9999L0 18.0217V5.98315Z" fill="#472F91"/>
</svg>
